PathFileType	4	(X/Y/Z)	./resultDataOpenSim/trcMotMarkerGrf/sub10/qtm-01-02.trc
DataRate	CameraRate	NumFrames	NumMarkers	Units	OrigDataRate	OrigDataStartFrame	OrigNumFrames
250.000000	250.000000	15	24	m	250.000000	398	454
Frame#	Time	L.Toe.Tip			R.Toe.Tip			L.Ankle.Lat			R.Ankle.Lat			L.Ankle.Med			R.Ankle.Med			L.Heel			R.Heel			L.Knee.Lat			R.Knee.Lat			L.Knee.Med			R.Knee.Med			L.Thigh.Upper			R.Thigh.Upper			L.ASIS			R.ASIS			V.Sacral			L.Acromium			R.Acromium			C7			L.Elbow			R.Elbow			L.Wrist.Lat			R.Wrist.Lat
		X1	Y1	Z1	X2	Y2	Z2	X3	Y3	Z3	X4	Y4	Z4	X5	Y5	Z5	X6	Y6	Z6	X7	Y7	Z7	X8	Y8	Z8	X9	Y9	Z9	X10	Y10	Z10	X11	Y11	Z11	X12	Y12	Z12	X13	Y13	Z13	X14	Y14	Z14	X15	Y15	Z15	X16	Y16	Z16	X17	Y17	Z17	X18	Y18	Z18	X19	Y19	Z19	X20	Y20	Z20	X21	Y21	Z21	X22	Y22	Z22	X23	Y23	Z23	X24	Y24	Z24

398	1.588	1.7422807	0.1362344	-0.10897851	0.94760974	0.038306231	0.045707095	1.6186962	0.094209316	-0.14658494	0.82707774	0.10458422	0.086606907	1.6162228	0.11652535	-0.06627966	0.85266098	0.1214298	0.0022260666	1.577758	0.033658859	-0.10479922	0.76854852	0.10151536	0.041319055	1.4594034	0.45675534	-0.16237106	1.0489983	0.43987461	0.12052526	1.4645692	0.42687891	-0.043998013	1.0777669	0.43411478	-0.0057685541	1.3058085	0.80068627	-0.20732838	1.166804	0.83399679	0.16026089	1.3371405	0.90889704	-0.12359127	1.2708343	0.91248088	0.12184515	1.1124179	0.91830673	-0.067271709	1.2144247	1.382725	-0.17845704	1.1978234	1.3729896	0.14712828	1.1173723	1.4015248	-0.023868494	1.0781335	1.073269	-0.22410781	1.2665707	1.0290026	0.22588746	1.1170517	0.84073924	-0.28892161	1.5109054	0.97128897	0.23304866
399	1.592	1.748317	0.13337321	-0.10824179	0.94802626	0.038263791	0.045735603	1.6247736	0.092545204	-0.14675926	0.82891998	0.1069018	0.086838484	1.621982	0.11443888	-0.066401399	0.85479685	0.12323734	0.0024669608	1.583096	0.032038314	-0.10558832	0.77036399	0.10485431	0.041752438	1.4693383	0.45703863	-0.16218739	1.0549035	0.4391341	0.120069	1.47403	0.42701632	-0.043995429	1.0845153	0.43280332	-0.0059577244	1.3138969	0.80057108	-0.20795003	1.174834	0.8325483	0.15961273	1.3452763	0.9078856	-0.12374977	1.2781228	0.91126398	0.12151598	1.1203807	0.9172358	-0.068326727	1.2213346	1.3815578	-0.17933514	1.204142	1.3718863	0.14631253	1.1241088	1.4001717	-0.024886429	1.084178	1.0726574	-0.22490928	1.2756489	1.0284843	0.22465463	1.1215173	0.83982402	-0.28985473	1.5201705	0.97227137	0.23198627
400	1.596	1.7539716	0.13037448	-0.10787813	0.94845593	0.038195368	0.045811636	1.6304017	0.090741273	-0.14688339	0.83081198	0.10928464	0.087027934	1.6273476	0.11226319	-0.066439209	0.85711569	0.12513491	0.0027023859	1.5879734	0.030376691	-0.10630517	0.77240683	0.10832104	0.042060924	1.4790948	0.45724364	-0.16199516	1.0610739	0.43837945	0.11964177	1.4835592	0.42720421	-0.043940422	1.0914404	0.43144507	-0.0061358441	1.3219897	0.80057081	-0.20860218	1.1832985	0.83096854	0.15904077	1.353492	0.90702196	-0.12398388	1.2855216	0.91004851	0.12112425	1.1283789	0.91616493	-0.069305917	1.2282565	1.3804268	-0.18024088	1.2104761	1.3708373	0.14546809	1.1308637	1.3988506	-0.025943716	1.0902534	1.0720872	-0.2257352	1.2846365	1.0280055	0.22340427	1.1261695	0.8389492	-0.2907488	1.5293278	0.9731847	0.23093094
401	1.6	1.7592618	0.12744504	-0.10803389	0.94890448	0.038115474	0.045905366	1.6356439	0.088818967	-0.14695059	0.83279097	0.11174621	0.08717073	1.6323506	0.11014383	-0.066348802	0.85964752	0.12711696	0.0029221839	1.5924607	0.028643777	-0.10693589	0.77470042	0.11191014	0.042200123	1.4887294	0.45733284	-0.16183693	1.0676627	0.43757459	0.11922799	1.4931152	0.42741315	-0.043836562	1.0985487	0.43004965	-0.0063054772	1.3301042	0.8006404	-0.20928002	1.1916499	0.82946322	0.1583792	1.3617839	0.90631239	-0.12430306	1.2930401	0.90883268	0.1206696	1.1364303	0.91510683	-0.070204495	1.2351894	1.3793315	-0.18117374	1.2168907	1.3698107	0.14458281	1.1376388	1.3975634	-0.02702678	1.09637	1.0715579	-0.22657139	1.2935435	1.0275861	0.22213168	1.130996	0.83811176	-0.29160243	1.5383667	0.97402853	0.22987151
402	1.604	1.7641906	0.12475484	-0.10864612	0.9494022	0.038053834	0.045965794	1.6405507	0.086790125	-0.14694974	0.83494494	0.1143141	0.087268648	1.6370359	0.10818882	-0.066110323	0.86241674	0.1291576	0.0031165839	1.5966254	0.026806698	-0.10748124	0.7772392	0.11561491	0.042189059	1.4982711	0.45726553	-0.16173329	1.0747727	0.43670501	0.11881926	1.502653	0.42759757	-0.043692483	1.1058394	0.42863101	-0.0064735816	1.3382569	0.8007358	-0.20997948	1.1997371	0.82812053	0.15756533	1.3701375	0.90576081	-0.12471222	1.3007832	0.90760558	0.12014926	1.1445523	0.91406559	-0.071032636	1.2421268	1.3782703	-0.18212771	1.2234034	1.368788	0.1436519	1.1444346	1.3963051	-0.028122489	1.1025312	1.0710537	-0.2274185	1.3023572	1.027214	0.2208243	1.1359751	0.83729986	-0.29241339	1.5472833	0.97480817	0.22879493
403	1.608	1.7687444	0.12227711	-0.10925333	0.94996423	0.038022018	0.045967473	1.6451716	0.08466667	-0.14687906	0.83732933	0.11699218	0.087316326	1.6414648	0.10631177	-0.065774768	0.8654356	0.13122014	0.0032769414	1.6005214	0.024883662	-0.1079449	0.78002114	0.11942385	0.042051065	1.5077078	0.45702188	-0.16167325	1.0822362	0.43581427	0.11842795	1.5121337	0.42771465	-0.043528462	1.1133006	0.42720518	-0.006634935	1.346461	0.80081977	-0.2106941	1.2077739	0.82686261	0.15665978	1.3785383	0.90536641	-0.12521238	1.3089734	0.90635102	0.1195466	1.1527481	0.91304237	-0.071785853	1.2490642	1.3772414	-0.18309236	1.2299952	1.3677693	0.14267599	1.1512483	1.3950692	-0.029221945	1.1087339	1.0705598	-0.22828373	1.3110587	1.0268681	0.21947502	1.1410972	0.8365057	-0.29317893	1.5560923	0.97553004	0.22769309
404	1.612	1.7729227	0.11979949	-0.10918756	0.95056388	0.037997126	0.045919869	1.6495629	0.082457987	-0.14675284	0.83998416	0.11976829	0.087316191	1.6456852	0.10428879	-0.065440925	0.86871461	0.13327976	0.0034057427	1.6041509	0.022988826	-0.10833896	0.78305917	0.12332812	0.041787842	1.5170232	0.45660183	-0.16163481	1.0896384	0.43497482	0.11806411	1.5215345	0.4277339	-0.043370339	1.1209204	0.42578828	-0.006770231	1.3547293	0.80086938	-0.21141907	1.2158541	0.82558301	0.15574789	1.3869827	0.90511936	-0.12580432	1.3177964	0.90505861	0.11883933	1.1610102	0.91203949	-0.072446336	1.2560013	1.3762441	-0.18406004	1.2366425	1.366764	0.14165749	1.1580772	1.3938476	-0.030315658	1.1149748	1.0700651	-0.22917195	1.3196346	1.0265382	0.21808978	1.1463694	0.83573184	-0.29389947	1.5648122	0.9761884	0.22656138
405	1.616	1.7768449	0.11705785	-0.10823932	0.95116146	0.03794508	0.045854808	1.6537906	0.080159684	-0.14658477	0.84295663	0.12263711	0.087279009	1.6497274	0.10201122	-0.065162834	0.8722744	0.13532683	0.0035135281	1.6074337	0.021333619	-0.10869646	0.78637474	0.12731972	0.041386155	1.5262056	0.45600915	-0.16160209	1.0967134	0.43421926	0.11772801	1.5308348	0.42763264	-0.043238225	1.1287045	0.42439057	-0.0068650489	1.3630732	0.80087339	-0.21215154	1.2239312	0.82422376	0.1548758	1.3954804	0.90500016	-0.1264917	1.3271176	0.90373882	0.11802269	1.1693333	0.91105805	-0.073005546	1.2629382	1.3752813	-0.18503305	1.2433173	1.3657825	0.1406033	1.1649234	1.3926296	-0.031397493	1.1212552	1.0695615	-0.23007458	1.3280826	1.0262243	0.21669067	1.1517947	0.83498128	-0.29458056	1.5734394	0.97676684	0.22540226
406	1.62	1.7808138	0.11373672	-0.1068746	0.95174421	0.037850568	0.045819125	1.6579387	0.077775302	-0.14639257	0.84619244	0.12557651	0.087184078	1.653652	0.099564344	-0.064913581	0.87614076	0.13735014	0.0036071061	1.6102534	0.020135241	-0.1090579	0.78999039	0.13138209	0.04082753	1.535216	0.45524376	-0.16156807	1.1036082	0.43351951	0.11741782	1.5400031	0.4273847	-0.043140084	1.1366755	0.42300719	-0.0069163217	1.3715021	0.8008288	-0.21288964	1.232091	0.82276958	0.1540411	1.4040399	0.9049841	-0.12727575	1.3365063	0.90241808	0.11711963	1.1777146	0.91009492	-0.073485909	1.2698748	1.3743573	-0.18602488	1.2499873	1.3648327	0.1395231	1.1717909	1.3914074	-0.032469218	1.1275801	1.069044	-0.23096843	1.3364066	1.0259234	0.21531134	1.1573643	0.83424841	-0.29522822	1.5819494	0.97725468	0.22422666
407	1.624	1.7851993	0.1094259	-0.10565237	0.95232338	0.037719941	0.045841212	1.6621081	0.075368105	-0.14621833	0.84952654	0.12853926	0.086977017	1.6575698	0.097121348	-0.064625149	0.88033274	0.13933302	0.0036868328	1.6125549	0.01950508	-0.10941337	0.79392439	0.13548943	0.040095656	1.5439857	0.45430592	-0.16153945	1.1106909	0.43282051	0.11712869	1.5489831	0.42694535	-0.043075538	1.1448499	0.42161793	-0.0069229886	1.3800269	0.800741	-0.21363642	1.2404623	0.82123098	0.15322308	1.4126442	0.90504964	-0.12813939	1.3456422	0.90111413	0.11616431	1.1861387	0.90915199	-0.073925172	1.276813	1.3734699	-0.18705006	1.256637	1.3639175	0.13841513	1.1786753	1.3901767	-0.033535479	1.1339526	1.0685099	-0.2318287	1.3446083	1.025626	0.21398128	1.163067	0.83352145	-0.29584379	1.5903249	0.97765285	0.22304193
408	1.628	1.7902183	0.10373215	-0.10473823	0.95291919	0.03756796	0.045894676	1.6663651	0.073092636	-0.14610209	0.85288646	0.13150154	0.086627046	1.6616009	0.094872188	-0.064236096	0.88485428	0.1412644	0.0037503059	1.6143775	0.019475979	-0.10967693	0.79819105	0.13961919	0.039186583	1.5524683	0.45320691	-0.16154387	1.1182075	0.43207989	0.1168567	1.557694	0.42625592	-0.043040365	1.15323	0.42019574	-0.006880209	1.3886623	0.80061909	-0.21440088	1.2489763	0.8196266	0.1524185	1.421243	0.90518882	-0.12904383	1.3545191	0.89982931	0.11517903	1.194568	0.90825817	-0.074325627	1.283754	1.3726074	-0.18810629	1.2632778	1.3630274	0.13726443	1.1855595	1.3889341	-0.034602181	1.1403709	1.0679552	-0.23264314	1.3526934	1.0253233	0.21269714	1.168896	0.83279153	-0.29642673	1.5985691	0.97796316	0.22184327
409	1.632	1.7957445	0.096566253	-0.10403703	0.95356404	0.037408874	0.045899292	1.6706497	0.071156129	-0.14602871	0.85639054	0.13448305	0.086164839	1.6658141	0.092969836	-0.063736652	0.88969771	0.14313985	0.0037973053	1.6158272	0.020098532	-0.10977238	0.80281101	0.14376525	0.038116102	1.5606819	0.4519872	-0.16161388	1.1261753	0.4312849	0.11660448	1.5660704	0.42528464	-0.043025857	1.1618155	0.41871366	-0.0067798026	1.3974241	0.80046843	-0.21519222	1.257513	0.81796647	0.1516269	1.4297672	0.90541057	-0.12995014	1.3632547	0.89856136	0.11416387	1.2029557	0.90747117	-0.074636475	1.2906968	1.3717582	-0.18917459	1.2699324	1.3621343	0.13606292	1.1924206	1.3876827	-0.035678908	1.1468322	1.0673743	-0.23341523	1.36068	1.0250082	0.21141601	1.1748469	0.83205811	-0.29697985	1.6066948	0.97818165	0.22062281
410	1.636	1.8013074	0.088415998	-0.10347884	0.95429951	0.03725574	0.045742527	1.6747852	0.069686327	-0.14596235	0.86020892	0.13750347	0.085654185	1.6701849	0.091466134	-0.06319638	0.89486391	0.14494964	0.003836612	1.6170644	0.021371423	-0.10973223	0.80781825	0.1479352	0.036920272	1.5687047	0.45074161	-0.16175536	1.1344957	0.43044503	0.11638163	1.574106	0.42407648	-0.043027904	1.1706143	0.41714674	-0.0066128243	1.4063256	0.80029168	-0.21601425	1.2661841	0.81624982	0.15082234	1.438164	0.90572051	-0.13084191	1.3718991	0.89730474	0.11310145	1.211264	0.90683413	-0.074824086	1.2976434	1.3709262	-0.1902406	1.2766228	1.3612123	0.13482153	1.1992376	1.3864348	-0.036774648	1.1533406	1.0667639	-0.23415492	1.3685878	1.0246725	0.21009347	1.180923	0.83132668	-0.29751011	1.6147164	0.97830386	0.21938375
411	1.64	1.8063804	0.080234767	-0.10306166	0.95515923	0.037122317	0.045346998	1.6786237	0.068603066	-0.14594899	0.86444285	0.14054655	0.085142093	1.6746137	0.090312207	-0.062736877	0.90037399	0.14667539	0.0038863459	1.6182849	0.023089527	-0.10966468	0.81325058	0.15213435	0.035651759	1.5766419	0.4496267	-0.16193808	1.1430611	0.42957819	0.11620128	1.5818596	0.42277401	-0.043065168	1.1796409	0.4154695	-0.0063705491	1.4153754	0.80010406	-0.2168659	1.2752072	0.8144737	0.1499767	1.4464374	0.90608496	-0.13172644	1.3804454	0.89604782	0.11197195	1.2194607	0.90631385	-0.074951099	1.304599	1.3701291	-0.19130367	1.283363	1.3602761	0.13356048	1.2059965	1.3852052	-0.037896223	1.1599072	1.0661228	-0.23486877	1.3764254	1.0243046	0.20871816	1.1871444	0.8306023	-0.29803067	1.6226471	0.97832891	0.21814126
412	1.644	1.8107239	0.07287181	-0.10273027	0.9561549	0.037013795	0.044788919	1.6821415	0.067669435	-0.14610588	0.8691206	0.14357688	0.084650252	1.6789854	0.089418969	-0.062458352	0.90625259	0.14830011	0.0039634828	1.6196467	0.024909197	-0.10964832	0.81913632	0.15635532	0.034366456	1.5846034	0.44881616	-0.16211553	1.1517962	0.42869971	0.11606343	1.5894335	0.4215855	-0.043172873	1.1889121	0.41365442	-0.0060433831	1.424576	0.79995405	-0.21774477	1.2845785	0.81263753	0.1490954	1.4546435	0.90642913	-0.13261923	1.3889274	0.89478201	0.11076675	1.2275201	0.9058048	-0.07512654	1.3115612	1.3693758	-0.19237121	1.2901482	1.3593828	0.13229479	1.2127024	1.3840093	-0.039053341	1.1665407	1.065453	-0.23556352	1.3841906	1.0238959	0.2073096	1.1935514	0.82988517	-0.29856844	1.6304962	0.97825708	0.21690788
